<?xml version="1.0" standalone="no"?>
<!DOCTYPE svg PUBLIC "-//W3C//DTD SVG 20010904//EN"
 "http://www.w3.org/TR/2001/REC-SVG-20010904/DTD/svg10.dtd">
<svg version="1.0" xmlns="http://www.w3.org/2000/svg"
 width="509.000000pt" height="509.000000pt" viewBox="0 0 509.000000 509.000000"
 preserveAspectRatio="xMidYMid meet">
<metadata>
Created by potrace 1.15, written by Peter Selinger 2001-2017
</metadata>
<g transform="translate(0.000000,509.000000) scale(0.100000,-0.100000)"
fill="#000000" stroke="none">
<path d="M2290 5084 c-491 -59 -895 -217 -1280 -502 -150 -112 -390 -352 -502
-502 -258 -349 -411 -711 -485 -1147 -26 -156 -26 -620 0 -776 95 -562 328
-1020 721 -1413 393 -393 851 -626 1413 -721 156 -26 620 -26 776 0 562 95
1020 328 1413 721 393 393 626 851 721 1413 26 156 26 620 0 776 -95 562 -328
1020 -721 1413 -388 387 -830 616 -1383 715 -96 18 -166 22 -378 24 -143 2
-276 1 -295 -1z m725 -1263 c152 -61 248 -175 263 -315 l7 -61 110 -6 c143 -7
204 -30 289 -110 44 -41 72 -77 92 -121 l29 -63 0 -795 0 -795 -32 -66 c-52
-105 -150 -183 -268 -213 -51 -14 -155 -16 -721 -16 -631 0 -665 1 -726 20
-156 48 -270 177 -285 325 l-6 55 -76 0 c-182 0 -328 80 -407 223 l-29 52 -3
802 c-2 787 -2 802 18 856 46 122 172 220 320 247 25 4 342 7 705 7 l660 -2
60 -24z"/>
<path d="M1600 3710 c-83 -18 -154 -71 -193 -144 l-22 -41 0 -770 0 -770 30
-54 c53 -95 144 -141 282 -141 l72 0 3 678 3 677 29 63 c37 81 131 171 213
204 58 23 58 23 591 26 l532 3 0 40 c0 83 -63 170 -153 210 l-52 24 -650 2
c-357 0 -666 -2 -685 -7z"/>
<path d="M2150 3313 c-92 -15 -168 -63 -207 -131 l-28 -47 -3 -760 c-2 -580 0
-771 10 -805 8 -31 27 -61 63 -96 87 -88 53 -84 805 -84 729 0 709 -2 789 67
23 19 52 54 64 77 l22 41 3 755 c2 541 0 766 -8 795 -16 55 -54 109 -101 139
-82 55 -99 56 -769 55 -338 -1 -626 -4 -640 -6z m1165 -152 c60 -27 101 -66
129 -123 25 -49 26 -60 26 -208 0 -148 -1 -159 -26 -208 -28 -57 -69 -96 -129
-123 -37 -17 -77 -19 -521 -19 l-480 0 -52 26 c-111 55 -142 126 -142 324 0
162 13 210 72 270 79 82 61 80 603 80 443 0 483 -2 520 -19z m-730 -760 c60
-27 101 -66 129 -123 24 -48 26 -63 26 -178 0 -115 -2 -130 -26 -178 -29 -59
-69 -96 -133 -125 -37 -16 -61 -18 -165 -15 -133 4 -160 13 -219 72 -58 58
-71 98 -75 226 -4 125 5 170 45 232 52 78 123 106 268 107 86 0 119 -3 150
-18z m735 -2 c113 -51 160 -139 160 -299 0 -160 -47 -248 -160 -299 -69 -31
-246 -30 -315 3 -55 25 -109 80 -134 135 -23 52 -22 271 2 323 26 57 77 109
132 134 69 33 246 34 315 3z m-546 -760 c31 -25 34 -61 6 -89 -19 -19 -33 -20
-324 -20 -304 0 -305 0 -320 22 -23 33 -19 64 10 87 26 20 38 21 314 21 276 0
288 -1 314 -21z m256 1 c24 -24 26 -67 3 -92 -12 -14 -31 -18 -79 -18 -56 0
-65 3 -83 26 -27 34 -26 50 4 79 32 33 124 36 155 5z m255 -5 c30 -29 32 -54
5 -83 -17 -18 -32 -22 -82 -22 -70 0 -98 17 -98 59 0 49 32 70 103 71 38 0 53
-5 72 -25z"/>
<path d="M2335 3070 c-17 -5 -46 -26 -65 -45 l-35 -36 -3 -144 c-4 -166 6
-199 67 -237 36 -23 38 -23 486 -26 l450 -3 45 23 c73 38 85 69 85 228 0 154
-9 182 -72 222 l-38 23 -445 2 c-245 1 -459 -2 -475 -7z"/>
<path d="M2341 2309 l-34 -10 159 -160 159 -159 9 32 c4 18 6 69 4 113 -7 138
-53 184 -186 191 -42 2 -92 -1 -111 -7z"/>
<path d="M2232 2091 l3 -120 34 -35 c42 -43 108 -61 198 -53 35 4 69 9 75 13
10 6 -288 314 -305 314 -5 0 -7 -54 -5 -119z"/>
<path d="M3090 2313 c-14 -2 -28 -8 -32 -12 -4 -3 62 -76 147 -161 119 -119
156 -150 161 -137 3 9 4 61 2 116 -3 110 -16 139 -76 174 -32 19 -151 31 -202
20z"/>
<path d="M2965 2186 c-4 -20 -5 -74 -3 -120 7 -140 53 -181 203 -181 148 0
148 -3 -34 179 l-159 159 -7 -37z"/>
</g>
</svg>
